<?xml version="1.0" standalone="no"?>
<!DOCTYPE svg PUBLIC "-//W3C//DTD SVG 1.1//EN" "http://www.w3.org/Graphics/SVG/1.1/DTD/svg11.dtd" >
<svg xmlns="http://www.w3.org/2000/svg">
<metadata></metadata>
<defs>
<font id="enge_holzschriftregular" horiz-adv-x="614" >
<font-face units-per-em="2048" ascent="1638" descent="-410" />
<missing-glyph horiz-adv-x="501" />
<glyph horiz-adv-x="2048" />
<glyph horiz-adv-x="2048" />
<glyph unicode="&#xd;" horiz-adv-x="2048" />
<glyph horiz-adv-x="661" d="M0 686l88 -186l31 14v-514h471v287h-205v352l129 59l-86 187l-43 -21v774h-266v-897z" />
<glyph horiz-adv-x="569" d="M2 686l74 -158l30 15v-543h402v244h-174v405l106 49l-73 158l-33 -14v551h-228v-658z" />
<glyph horiz-adv-x="573" d="M10 0h543v287h-240l209 1351h-481v-225h186zM20 2191l213 -428v-2h132l213 430l-146 -2l-133 -286l-133 286z" />
<glyph horiz-adv-x="487" d="M8 0h461v244h-203l178 1149h-409v-193h158zM18 1853l181 -364v-2h112l-2 2l183 364l-123 -2l-115 -243l-113 243z" />
<glyph unicode=" "  horiz-adv-x="501" />
<glyph unicode="&#x09;" horiz-adv-x="501" />
<glyph unicode="&#xa0;" horiz-adv-x="501" />
<glyph unicode="!" horiz-adv-x="389" d="M61 0h267v348h-267v-348zM72 1638l20 -1187h205l20 1187h-245z" />
<glyph unicode="&#x22;" horiz-adv-x="716" d="M61 983h123l144 307v348h-267v-348h103zM389 983h123l143 307v348h-266v-348h103z" />
<glyph unicode="#" horiz-adv-x="1228" d="M43 401h219l-63 -401h204l64 401h229l-63 -401h207l63 401h217l27 183h-217l35 225h215l28 182h-215l60 375h-207l-60 -375h-229l59 375h-204l-60 -375h-217l-29 -182h218l-35 -225h-219zM494 584l34 225h232l-35 -225h-231z" />
<glyph unicode="$" horiz-adv-x="665" d="M31 301q0 -135 55 -217q66 -96 188 -109v-122h107v122q254 32 254 390q0 193 -94 348q-41 53 -82 104t-82 105q-106 137 -107 221q0 111 62 110q66 0 65 -110v-207h238v229q0 291 -254 322v100h-107v-100q-244 -43 -243 -365q0 -201 96 -334q45 -53 88 -108t88 -109 q94 -131 94 -256q0 -111 -65 -110q-61 0 -62 110v252h-239v-266z" />
<glyph unicode="%" horiz-adv-x="952" d="M66 -123l102 -74l725 1885l-105 73zM70 965q0 -174 143 -174t143 174v491q0 174 -143 174t-143 -174v-491zM193 991v432q0 63 20 64q20 0 20 -72v-424q0 -57 -20 -57t-20 57zM606 174q0 -174 144 -174q143 0 143 174v492q0 174 -143 174t-144 -174v-492zM729 201v432 q0 63 21 63q20 0 20 -71v-424q0 -57 -20 -58q-20 0 -21 58z" />
<glyph unicode="&#x26;" horiz-adv-x="798" d="M61 328q0 -143 52 -232q63 -113 194 -112q135 0 189 71l22 -55h281l-152 369l152 450h-246l-41 -121l-61 152q164 256 163 461q0 164 -51 245q-66 102 -215 103q-287 0 -287 -348q0 -209 93 -432q-92 -92 -93 -265v-286zM307 379v170l90 -236q-6 -47 -49 -47 q-41 0 -41 113zM307 1239v51q0 143 41 144q41 -1 41 -144q0 -113 -61 -205q-20 47 -21 154z" />
<glyph unicode="'" horiz-adv-x="389" d="M61 1004h123l144 307v327h-267v-327h103z" />
<glyph unicode="(" horiz-adv-x="512" d="M20 819q0 -692 299 -1057l140 140q-172 322 -172 917q0 592 172 922l-140 139q-299 -367 -299 -1061z" />
<glyph unicode=")" horiz-adv-x="512" d="M53 -98l140 -140q299 365 299 1057q0 694 -299 1061l-140 -139q172 -330 172 -922q0 -596 -172 -917z" />
<glyph unicode="*" horiz-adv-x="665" d="M92 1147l146 -60l-99 -180l99 -104l94 190l98 -190l96 106l-104 181l149 69l-41 164l-139 -78v213h-119v-213l-139 70z" />
<glyph unicode="+" horiz-adv-x="804" d="M61 369h222v-369h239v369h221v239h-221v367h-239v-367h-222v-239zM743 367v239v-239z" />
<glyph unicode="," horiz-adv-x="389" d="M61 0h103l-103 -303h123l144 303v348h-267v-348z" />
<glyph unicode="-" horiz-adv-x="327" d="M0 748h328v204h-328v-204z" />
<glyph unicode="." horiz-adv-x="389" d="M61 0h267v348h-267v-348z" />
<glyph unicode="/" horiz-adv-x="675" d="M41 -197l242 -43l354 2012l-242 43z" />
<glyph unicode="0" horiz-adv-x="696" d="M61 328q0 -344 287 -344t287 344v983q0 348 -287 348t-287 -348v-983zM307 379v850q0 143 41 143t41 -143v-850q0 -113 -41 -113t-41 113z" />
<glyph unicode="1" horiz-adv-x="491" d="M61 1331h62v-1331h246v1638h-246q-16 -59 -31.5 -115.5t-30.5 -109.5v-82z" />
<glyph unicode="2" horiz-adv-x="675" d="M61 1106h205v100q0 39 2 51q12 115 66 115q55 0 55 -112q0 -76 -41 -154l-164 -307q-102 -195 -102 -389v-410h553v287h-328q0 190 62 307l184 348q82 156 82 369q0 147 -68 243q-78 104 -219 105q-145 0 -223 -115q-63 -96 -64 -254v-184z" />
<glyph unicode="3" horiz-adv-x="696" d="M61 328q0 -147 68 -240q76 -104 219 -104q141 0 219 104q68 93 68 240v327q0 164 -92 226q92 80 92 266v164q0 150 -66 243q-78 104 -221 105q-145 0 -221 -105q-66 -94 -66 -243v-287h246v205q0 143 41 143t41 -143v-133q0 -113 -41 -113h-102v-225h102q41 0 41 -144 v-235q0 -113 -41 -113t-41 113v297h-246v-348z" />
<glyph unicode="4" horiz-adv-x="634" d="M0 471h328v-471h245v471h62v246h-62v921h-245q-326 -920 -328 -921v-246zM205 717l123 344v-344h-123z" />
<glyph unicode="5" horiz-adv-x="696" d="M61 287q0 -141 73 -222t214 -81t214 81t73 222v512q0 307 -236 307q-68 0 -112 -37v344h327v225h-553v-860h246q0 102 41 103q41 0 41 -121v-402q0 -92 -41 -92t-41 92v277h-246v-348z" />
<glyph unicode="6" horiz-adv-x="696" d="M61 328q0 -152 66 -242q78 -102 221 -102t221 102q66 90 66 242v368q0 150 -39 215q-53 92 -184 93q-66 0 -105 -37v313q0 92 41 92t41 -92v-174h225v219q0 143 -59 231q-68 102 -207 103q-141 0 -217 -98q-70 -88 -70 -236v-997zM307 360v265q0 92 41 92t41 -92v-281 q0 -78 -41 -78t-41 94z" />
<glyph unicode="7" d="M20 0h246l307 1413v225h-553v-225h308z" />
<glyph unicode="8" horiz-adv-x="696" d="M61 328q0 -147 68 -240q76 -104 219 -104q141 0 219 104q68 93 68 240v327q0 164 -92 226q92 80 92 266v164q0 147 -66 243q-78 104 -221 105q-145 0 -221 -105q-66 -96 -66 -243v-160q0 -55 2 -70q14 -133 91 -202q-92 -59 -93 -224v-327zM307 379v235q0 143 41 144 q41 0 41 -144v-235q0 -113 -41 -113t-41 113zM307 1096v133q0 143 41 143t41 -143v-133q0 -113 -41 -113t-41 113z" />
<glyph unicode="9" horiz-adv-x="696" d="M61 328q0 -344 287 -344t287 344v983q0 348 -287 348t-287 -348v-307q0 -147 39 -218q53 -90 185 -90q63 0 104 37v-354q0 -113 -41 -113t-41 113v256h-246v-307zM307 1096v133q0 143 41 143t41 -143v-133q0 -113 -41 -113t-41 113z" />
<glyph unicode=":" horiz-adv-x="389" d="M61 0h267v348h-267v-348zM61 881h267v348h-267v-348z" />
<glyph unicode=";" horiz-adv-x="389" d="M61 0h103l-103 -303h123l144 303v348h-267v-348zM61 881h267v348h-267v-348z" />
<glyph unicode="?" horiz-adv-x="675" d="M61 1106h205q0 246 17 289q14 39 51 39q55 0 55 -113q0 -57 -41 -156l-137 -319q-68 -158 -68 -375v-61h226q0 145 43 247l153 363q70 160 70 291q0 147 -68 243q-78 104 -219 105q-143 0 -219 -94q-68 -86 -68 -234v-225zM123 0h266v348h-266v-348z" />
<glyph unicode="@" horiz-adv-x="946" d="M102 332q0 -172 109 -264q102 -84 274 -84q184 0 293 116l-98 95q-90 -72 -195 -72q-219 0 -219 254v637q0 229 209 229q86 0 145.5 -43t59.5 -125v-43q-45 51 -117 51q-172 0 -172 -186v-385q0 -170 158 -170q90 0 147 76l23 -56h125v695q0 160 -107 248q-96 82 -262 81 q-172 0 -268 -83q-104 -90 -105 -259v-712zM555 557v313q0 78 61 78q63 0 64 -78v-313q0 -78 -62 -78q-63 0 -63 78z" />
<glyph unicode="A" d="M0 0h221l21 287h110l21 -287h241l-143 1638h-328zM260 553l37 512l37 -512h-74z" />
<glyph unicode="B" horiz-adv-x="696" d="M61 0h287q297 0 297 307v369q0 121 -102 170q102 49 102 158v327q0 307 -317 307h-267v-1638zM328 287v430h20q43 0 55 -49q7 -23 7 -86v-160q0 -66 -7 -86q-12 -49 -55 -49h-20zM328 983v410h20q45 0 58 -68q2 -12 3 -37.5t1 -66.5v-95q0 -143 -62 -143h-20z" />
<glyph unicode="C" horiz-adv-x="696" d="M61 287q0 -141 73 -222t214 -81t214 81t73 222v389h-246v-318q0 -92 -41 -92t-41 92v906q0 110 40 110h1q41 0 41 -110v-281h246v369q0 141 -73 225t-214 84t-214 -84t-73 -225v-1065z" />
<glyph unicode="D" horiz-adv-x="696" d="M61 0h287q297 0 297 307v1024q0 160 -68.5 233.5t-228.5 73.5h-287v-1638zM307 287v1106h21q45 0 57 -70q2 -12 3 -37.5t1 -66.5v-799q0 -63 -6 -84q-12 -49 -55 -49h-21z" />
<glyph unicode="E" d="M61 0h512v287h-245v430h164v266h-164v410h245v245h-512v-1638z" />
<glyph unicode="F" horiz-adv-x="593" d="M61 0h267v717h164v266h-164v410h245v245h-512v-1638z" />
<glyph unicode="G" horiz-adv-x="716" d="M61 287q0 -129 60 -213q72 -90 196 -90q119 0 154 47l31 -31h153v840h-317v-256h57v-226q0 -92 -37 -92q-41 0 -41 92v895q0 121 39 121t39 -121v-270h260v369q0 143 -81.5 226t-225.5 83q-141 0 -214 -84t-73 -225v-1065z" />
<glyph unicode="H" horiz-adv-x="696" d="M61 0h256v717h62v-717h256v1638h-256v-655h-62v655h-256v-1638z" />
<glyph unicode="I" horiz-adv-x="389" d="M61 0h267v1638h-267v-1638z" />
<glyph unicode="J" horiz-adv-x="655" d="M20 287q0 -141 73 -222t214 -81t214 81t73 222v1351h-266v-1300q0 -70 -31 -70t-31 70v379h-246v-430z" />
<glyph unicode="K" horiz-adv-x="700" d="M61 0h246v287l43 149l101 -436h245l-209 905l213 733h-245l-148 -655v655h-246v-1638z" />
<glyph unicode="L" horiz-adv-x="604" d="M61 0h471v287h-204v1351h-267v-1638z" />
<glyph unicode="M" horiz-adv-x="1085" d="M61 0h246v1024l144 -1024h184l143 1024v-1024h246v1638h-418l-57 -553l-57 553h-431v-1638z" />
<glyph unicode="N" horiz-adv-x="798" d="M61 0h226v840l143 -840h307v1638h-225v-778l-113 778h-338v-1638z" />
<glyph unicode="O" horiz-adv-x="696" d="M61 287q0 -141 73 -222t214 -81t214 81t73 222v1065q0 141 -73 225t-214 84t-214 -84t-73 -225v-1065zM307 358v895q0 119 41 119t41 -119v-895q0 -92 -41 -92t-41 92z" />
<glyph unicode="P" horiz-adv-x="696" d="M61 0h267v696h41q152 0 217 78q59 72 59 230v327q0 160 -68.5 233.5t-228.5 73.5h-287v-1638zM328 963v430h20q45 0 58 -70q2 -12 3 -37.5t1 -66.5v-123q0 -63 -7 -84q-12 -49 -55 -49h-20z" />
<glyph unicode="Q" horiz-adv-x="798" d="M61 287q0 -141 73 -222t214 -81q143 0 213 63q41 -47 115 -47h61v287q-66 0 -84 22.5t-18 89.5v953q0 141 -73 225t-214 84t-214 -84t-73 -225v-1065zM307 358v895q0 121 41 121t41 -121v-895q0 -92 -41 -92t-41 92z" />
<glyph unicode="R" horiz-adv-x="716" d="M61 0h267v717h20q25 0 33 -8q18 -16 18 -136v-286q0 -205 29 -287h256q-29 82 -29 287v389q0 150 -112 170q92 25 92 158v327q0 307 -268 307h-306v-1638zM328 983v410h20q16 0 21 -2q30 -10 30 -172v-113q0 -123 -51 -123h-20z" />
<glyph unicode="S" horiz-adv-x="737" d="M61 532q0 -272 33 -364q61 -184 275 -184q160 0 239 116q68 101 68 269q0 176 -123 409l-205 389q-33 59 -33 123q0 84 50 84q49 0 61 -86q2 -12 3 -43t1 -78v-61h225q0 264 -30 360q-61 193 -267 193q-145 0 -225 -105q-72 -96 -72 -243q0 -193 82 -348l226 -431 q61 -117 61 -184q0 -82 -65 -82q-78 0 -78 144v122h-226z" />
<glyph unicode="T" horiz-adv-x="593" d="M20 1393h144v-1393h266v1393h143v245h-553v-245z" />
<glyph unicode="U" horiz-adv-x="675" d="M61 287q0 -141 73 -222t214 -81q266 0 266 303v1351h-225v-1310q0 -72 -41 -72t-41 72v1310h-246v-1351z" />
<glyph unicode="V" d="M0 1638l164 -1638h225l215 1638h-246l-51 -471l-51 471h-256z" />
<glyph unicode="W" horiz-adv-x="901" d="M0 1638l164 -1638h225l51 614l72 -614h225l164 1638h-225l-62 -573l-61 573h-184l-62 -573l-61 573h-246z" />
<glyph unicode="X" d="M0 0h236l61 307l53 -307h244l-154 850l174 788h-204l-72 -276l-62 276h-256l154 -819z" />
<glyph unicode="Y" d="M0 1638l123 -505q2 -4 10 -36t25 -89q10 -35 16 -67t10 -60v-881h246v881q37 174 62 252l122 505h-204l-82 -286l-82 286h-246z" />
<glyph unicode="Z" horiz-adv-x="573" d="M10 0h543v287h-240l209 1351h-481v-225h186z" />
<glyph unicode="`" d="M-143 2191l379 -430h231l-356 428z" />
<glyph unicode="a" horiz-adv-x="522" d="M0 0h188l17 244h94l18 -244h205l-123 1393h-278zM221 469l31 436l33 -436h-64z" />
<glyph unicode="b" horiz-adv-x="591" d="M51 0h244q254 0 254 260v313q0 102 -88 146q88 43 88 133v278q0 262 -270 263h-228v-1393zM279 244v364h16h1q52 0 52 -112v-138q0 -53 -4 -73q-10 -41 -49 -41h-16zM279 836v348h16q43 0 51 -58q2 -8 2 -30v-60v-80q0 -120 -52 -120h-1h-16z" />
<glyph unicode="c" horiz-adv-x="591" d="M51 244q0 -119 62.5 -187.5t181.5 -68.5q244 0 244 256v329h-209v-268q0 -80 -35 -80t-35 80v768q0 94 35 94t35 -94v-237h209v313q0 262 -244 262q-119 0 -181.5 -69.5t-62.5 -192.5v-905z" />
<glyph unicode="d" horiz-adv-x="591" d="M51 0h244q254 0 254 260v870q0 137 -59.5 200t-194.5 63h-244v-1393zM260 244v940h19q39 0 47 -58q4 -21 4 -84v-686q0 -51 -4 -71q-10 -41 -47 -41h-19z" />
<glyph unicode="e" horiz-adv-x="522" d="M51 0h436v244h-208v364h139v228h-139v348h208v209h-436v-1393z" />
<glyph unicode="f" horiz-adv-x="503" d="M51 0h228v608h139v228h-139v348h208v209h-436v-1393z" />
<glyph unicode="g" horiz-adv-x="608" d="M51 244q0 -115 51 -181q56 -75 165 -75h3q102 0 129 39l27 -27h131v713h-270v-217h49v-191q0 -80 -31 -80q-35 0 -35 80v760q0 102 33 102t33 -102v-229h221v313q0 123 -69.5 192.5t-192.5 69.5q-119 0 -181.5 -69.5t-62.5 -192.5v-905z" />
<glyph unicode="h" horiz-adv-x="591" d="M51 0h219v608h52v-608h217v1393h-217v-557h-52v557h-219v-1393z" />
<glyph unicode="i" horiz-adv-x="329" d="M51 0h228v1393h-228v-1393z" />
<glyph unicode="j" horiz-adv-x="557" d="M16 244q0 -119 62.5 -187.5t181.5 -68.5q244 0 244 256v1149h-225v-1106q0 -59 -27 -60q-27 0 -27 60v321h-209v-364z" />
<glyph unicode="k" horiz-adv-x="595" d="M51 0h209v162v82q10 35 18.5 66.5t18.5 60.5l86 -371h209l-178 770l182 623h-209l-127 -557v557h-209v-1393z" />
<glyph unicode="l" horiz-adv-x="514" d="M51 0h402v244h-174v1149h-228v-1393z" />
<glyph unicode="m" horiz-adv-x="921" d="M51 0h209v870l123 -870h156l123 870v-870h208v1393h-354l-49 -471l-49 471h-367v-1393z" />
<glyph unicode="n" horiz-adv-x="677" d="M51 0h193v713l121 -713h262v1393h-193v-662l-94 662h-289v-1393z" />
<glyph unicode="o" horiz-adv-x="591" d="M51 244q0 -119 62.5 -187.5t181.5 -68.5q244 0 244 256v905q0 262 -244 262q-119 0 -181.5 -69.5t-62.5 -192.5v-905zM260 305v760q0 102 35 102t35 -102v-760q0 -80 -35 -80t-35 80z" />
<glyph unicode="p" horiz-adv-x="591" d="M51 0h228v592h34q129 0 182.5 62.5t53.5 197.5v278q0 137 -59.5 200t-194.5 63h-244v-1393zM279 817v367h16q39 0 49 -56q2 -10 3 -30.5t1 -55.5v-110q0 -115 -53 -115h-16z" />
<glyph unicode="q" horiz-adv-x="677" d="M51 244q0 -119 62.5 -187.5t181.5 -68.5q123 0 182 53q35 -41 96 -41h54v244q-57 0 -76 22q-12 14 -12 74v809q0 262 -244 262q-119 0 -181.5 -69.5t-62.5 -192.5v-905zM260 305v760q0 102 35 102t35 -102v-760q0 -80 -35 -80t-35 80z" />
<glyph unicode="r" horiz-adv-x="608" d="M51 0h228v608h16q35 0 45 -43v-78v-231t-2 -8q2 -94 9 -155.5t18 -92.5h217q-25 63 -25 244v329q0 123 -96 146q78 23 78 133v278q0 262 -228 263h-260v-1393zM279 836v348h16q14 0 18 -2q27 -9 27 -148v-110q0 -88 -45 -88h-16z" />
<glyph unicode="s" horiz-adv-x="626" d="M51 453q0 -219 31 -308q55 -157 229 -157h2q135 0 203 98q57 82 57 227q0 147 -104 349l-174 329q-27 51 -27 105q0 71 40 71h1q55 0 56 -176v-51h192q0 227 -27 307q-51 162 -225 162q-123 0 -192 -88q-61 -80 -62 -207q0 -166 70 -297l192 -364q51 -94 52 -158 q0 -70 -56 -70q-57 0 -65 94v134h-193z" />
<glyph unicode="t" horiz-adv-x="503" d="M16 1184h123v-1184h226v1184h122v209h-471v-209z" />
<glyph unicode="u" horiz-adv-x="573" d="M51 244q0 -119 62.5 -187.5t181.5 -68.5q227 0 227 256v1149h-192v-1114q0 -61 -35 -62q-35 0 -35 62v1114h-209v-1149z" />
<glyph unicode="v" horiz-adv-x="522" d="M0 1393l139 -1393h191l184 1393h-209l-45 -402l-43 402h-217z" />
<glyph unicode="w" horiz-adv-x="765" d="M0 1393l139 -1393h191l45 522l59 -522h193l139 1393h-193l-51 -488l-53 488h-156l-53 -488l-51 488h-209z" />
<glyph unicode="x" horiz-adv-x="522" d="M0 0h201l51 260l45 -260h207l-129 723l147 670h-174l-61 -236l-51 236h-220l131 -697z" />
<glyph unicode="y" horiz-adv-x="522" d="M0 1393l104 -430q2 -4 8.5 -31t20.5 -76q8 -29 13.5 -55.5t9.5 -52.5v-748h209v748q16 76 29.5 129t23.5 86l104 430h-174l-69 -244l-70 244h-209z" />
<glyph unicode="z" horiz-adv-x="487" d="M8 0h461v244h-203l178 1149h-409v-193h158z" />
<glyph unicode="&#xa1;" horiz-adv-x="389" d="M61 1290h267v348h-267v-348zM72 0h245l-20 1188h-205z" />
<glyph unicode="&#xa2;" horiz-adv-x="669" d="M76 360q0 -111 53 -176q59 -72 168 -71v-166h70v166q225 -1 225 243v148h-211v-113q0 -98 -45 -98q-39 0 -39 65v568q0 61 41 61q43 0 43 -76v-112h211v196q0 143 -223 170v181h-72v-181q-221 -29 -221 -247v-558z" />
<glyph unicode="&#xa3;" horiz-adv-x="665" d="M12 643h94q8 -41 11.5 -80t3.5 -78q0 -221 -94 -303l18 -205q82 61 168 62q53 0 149 -33q98 -31 152 -31q84 1 137 48l-16 237q-57 -39 -123 -39q-33 0 -94 19q-55 20 -92 20q-29 0 -90 -18v4q86 113 86 397h141v160h-156q-8 59 -12 104t-8 78q-4 41 -7.5 65.5t-3.5 32.5 q0 170 66 170q45 0 57 -98q2 -16 3 -49t1 -84h224q0 248 -56 350q-66 115 -229 115q-180 0 -248 -131q-51 -94 -51 -297q0 -41 8 -105.5t25 -150.5h-64v-160z" />
<glyph unicode="&#xa4;" horiz-adv-x="1366" d="M78 1241l203 -203q-96 -139 -97 -284q0 -162 99 -287l-201 -203l108 -110l203 200q147 -98 291 -98q154 0 291 100l203 -202l110 112l-203 201q96 145 97 285q0 145 -99 290l201 199l-110 111l-203 -199q-139 96 -287 96q-150 0 -293 -98l-203 203zM369 754q0 131 92 223 t223 92q129 0 221 -94q92 -92 92 -221q0 -133 -92 -226q-90 -92 -223 -92q-135 0 -223 92q-90 94 -90 226z" />
<glyph unicode="&#xa5;" horiz-adv-x="665" d="M12 1458l127 -606h-84v-160h125l33 -162h-115v-159h115v-371h238v371h114v159h-114l34 162h123v160h-82l127 606h-231l-88 -579h-2l-88 579h-232z" />
<glyph unicode="&#xa6;" horiz-adv-x="317" d="M61 0h195v545h-195v-545zM61 913h195v545h-195v-545z" />
<glyph unicode="&#xa7;" horiz-adv-x="610" d="M41 721q0 -131 82 -240q2 -2 40 -43t116 -123q82 -88 81 -163q0 -88 -59 -89q-76 0 -78 136h-164q-2 -10 -2 -21v-18q0 -125 58 -201q63 -86 184 -86q117 0 182 96q55 82 56 207q0 141 -62 213q96 96 96 250q0 133 -82 248q-10 12 -48 55t-107 117q-82 90 -82 155 q0 80 63 80q57 0 58 -104h170q2 10 2 31q0 104 -58 180q-61 86 -161 86q-121 0 -185 -94q-57 -82 -57 -207q0 -135 49 -180q-92 -111 -92 -285zM199 772q0 53 34 88q27 -29 53.5 -59.5t53.5 -59.5q68 -86 68 -133q0 -51 -35 -86q-174 193 -174 250z" />
<glyph unicode="&#xa8;" d="M66 1761h213v348h-213v-348zM344 1761h213v348h-213v-348z" />
<glyph unicode="&#xa9;" horiz-adv-x="1146" d="M18 729q0 -346 170 -559q158 -195 385 -195t385 195q170 213 170 559t-170 559q-160 199 -385 199t-385 -199q-170 -213 -170 -559zM195 729q0 254 108 412q111 158 270 157q156 0 267 -159q112 -156 112 -410q0 -250 -110.5 -409.5t-268.5 -159.5q-160 0 -270 157 q-109 158 -108 412zM299 735q0 -164 66 -284q80 -150 229 -150q115 0 186 105q56 81 72 212h-137q-6 -129 -121 -129q-72 0 -107 97q-27 68 -26 153q0 92 26 158q33 92 111 92q111 0 117 -129h131q-16 129 -70 211q-68 102 -184 103q-152 0 -230 -152q-63 -119 -63 -287z " />
<glyph unicode="&#xac;" horiz-adv-x="663" />
<glyph unicode="&#xad;" horiz-adv-x="327" d="M0 748h328v204h-328v-204z" />
<glyph unicode="&#xae;" horiz-adv-x="1146" d="M18 727q0 -344 170 -557q158 -195 385 -195t385 195q170 213 170 557q0 348 -170 561q-156 199 -385 199t-385 -199q-170 -213 -170 -561zM195 727q0 254 108 412q111 160 270 159q156 0 267 -159q112 -156 112 -412q0 -252 -112 -410q-111 -158 -267 -157 q-160 0 -270 155q-109 158 -108 412zM354 319h133v343h50l131 -343h133l-148 355q162 12 162 215q0 135 -56.5 192.5t-187.5 57.5h-217v-820zM487 809v182l113 -2q76 -2 76 -90q0 -90 -76 -90h-113z" />
<glyph unicode="&#xb0;" horiz-adv-x="2048" d="M475 907q0 -63 45 -108t109 -45q63 0 108 45t45 108t-45 108.5t-108 45.5t-108.5 -45t-45.5 -109zM537 907q0 39 26.5 65.5t65.5 26.5t65.5 -26.5t26.5 -65.5t-26.5 -65.5t-65.5 -26.5t-65.5 26.5t-26.5 65.5z" />
<glyph unicode="&#xb2;" horiz-adv-x="325" d="M18 1348h103q0 133 35 133q27 0 26 -56q0 -45 -78 -184q-76 -137 -75 -242v-204h276v143h-164q0 94 31 154l92 174q41 78 41 184q0 174 -143 174t-144 -184v-92z" />
<glyph unicode="&#xb3;" horiz-adv-x="344" d="M27 969q0 -74 34 -121q41 -53 109 -53t109 53q34 47 34 121v164q0 82 -45 112q45 39 45 133q0 129 -12 170q-29 86 -131 86q-143 0 -143 -174v-143h123v102q0 72 20 72t20 -72q0 -123 -20 -123h-51v-112q57 0 63 -6q8 -6 8 -66v-117q0 -57 -20 -57t-20 57v148h-123v-174z " />
<glyph unicode="&#xb4;" d="M184 1761h232l383 430l-258 -2z" />
<glyph unicode="&#xb6;" horiz-adv-x="888" d="M2 1094q0 -162 76 -252q82 -98 239 -99v-1105h181v1636h120v-1636h183v1636h86v184h-533q-186 0 -269 -87t-83 -277z" />
<glyph unicode="&#xb8;" horiz-adv-x="696" d="M49 -297h211l313 442h-215z" />
<glyph unicode="&#xb9;" horiz-adv-x="231" d="M25 1460h30v-665h123v819h-123q-8 -29 -15 -57.5t-15 -55.5v-41z" />
<glyph unicode="&#xba;" horiz-adv-x="360" d="M35 965q0 -174 143 -174q144 0 144 174v491q0 174 -144 174q-143 0 -143 -174v-491zM158 991v432q0 63 20 64q20 0 21 -72v-424q0 -57 -21 -57q-20 0 -20 57z" />
<glyph unicode="&#xbc;" horiz-adv-x="825" d="M0 -123l100 -74l725 1885l-104 73zM53 1458h31v-665h123v819h-123q-8 -29 -15.5 -57.5t-15.5 -55.5v-41zM506 236h164v-236h123v236h30v122h-30v461h-123q-82 -231 -123 -346l-41 -115v-122zM608 358l62 172v-172h-62z" />
<glyph unicode="&#xbd;" horiz-adv-x="825" d="M0 -123l100 -74l725 1885l-104 73zM53 1458h31v-665h123v819h-123q-8 -29 -15.5 -57.5t-15.5 -55.5v-41zM539 553h102q0 133 35 133q27 0 26 -55q0 -45 -77 -185q-76 -137 -76 -241v-205h276v143h-163q0 94 30 154l92 174q41 78 41 184q0 174 -143 174t-143 -184v-92z " />
<glyph unicode="&#xbe;" horiz-adv-x="825" d="M0 -123l100 -74l725 1885l-104 73zM2 975q0 -74 35 -121q41 -53 108 -53q68 0 109 53q35 47 35 121v164q0 82 -45 112q45 39 45 133q0 129 -13 170q-29 86 -131 86q-143 0 -143 -174v-143h123v102q0 72 20 72t21 -72q0 -123 -21 -122h-51v-113q57 0 64 -6q8 -6 8 -66 v-117q0 -57 -21 -57q-20 0 -20 57v148h-123v-174zM506 236h164v-236h123v236h30v122h-30v461h-123q-82 -231 -123 -346l-41 -115v-122zM608 358l62 172v-172h-62z" />
<glyph unicode="&#xbf;" horiz-adv-x="675" d="M61 348q0 -150 68 -244q76 -104 219 -104q139 0 217 96q70 85 70 232v225h-205v-123q0 -47 -1 -76.5t-3 -44.5q-16 -84 -64 -84q-55 0 -55 113q0 57 41 156l137 319q68 156 68 375v61h-225q0 -147 -43 -248l-154 -362q-70 -160 -70 -291zM307 1311h266v348h-266v-348z " />
<glyph unicode="&#xc0;" d="M-147 2191l378 -430h232l-357 428zM0 0h221l21 287h110l21 -287h241l-143 1638h-328zM260 553l37 512l37 -512h-74z" />
<glyph unicode="&#xc1;" d="M0 0h221l21 287h110l21 -287h241l-143 1638h-328zM176 1761h232l380 428h-256zM260 553l37 512l37 -512h-74z" />
<glyph unicode="&#xc2;" d="M0 0h221l21 287h110l21 -287h241l-143 1638h-328zM25 1761h145l133 287l133 -287h146l-213 426v4h-131zM260 553l37 512l37 -512h-74z" />
<glyph unicode="&#xc3;" d="M0 0h221l21 287h110l21 -287h241l-143 1638h-328zM49 1780h144q2 55 28 55q8 0 74 -37q63 -37 98 -37q135 0 135 209v15h-143q0 -18 -4 -35q-8 -20 -27 -21l-80 43q-53 29 -84 29q-133 0 -141 -221zM260 553l37 512l37 -512h-74z" />
<glyph unicode="&#xc4;" d="M0 0h221l21 287h110l21 -287h241l-143 1638h-328zM61 1761h213v348h-213v-348zM260 553l37 512l37 -512h-74zM340 1761h213v348h-213v-348z" />
<glyph unicode="&#xc5;" d="M0 0h221l21 287h110l21 -287h241l-143 1638h-328zM115 1946q0 -76 54 -130.5t130 -54.5t130 54.5t54 130.5t-54 130t-130 54t-130 -54.5t-54 -129.5zM201 1946q0 41 28.5 69.5t69.5 28.5t69.5 -28.5t28.5 -69.5t-28.5 -70t-69.5 -29t-69.5 29t-28.5 70zM260 553l37 512 l37 -512h-74z" />
<glyph unicode="&#xc6;" horiz-adv-x="929" d="M0 0h221l21 287h110l21 -287h512v287h-246v430h164v266h-164v410h246v245h-742zM260 553l37 512l37 -512h-74z" />
<glyph unicode="&#xc7;" horiz-adv-x="696" d="M49 -297h211l213 301q162 68 162 283v389h-246v-318q0 -92 -41 -92t-41 92v906q0 111 41 110q41 0 41 -110v-281h246v369q0 141 -73 225t-214 84t-214 -84t-73 -225v-1065q0 -240 191 -291z" />
<glyph unicode="&#xc8;" d="M-139 2189l379 -428h231l-356 428h-254zM61 0h512v287h-245v430h164v266h-164v410h245v245h-512v-1638z" />
<glyph unicode="&#xc9;" d="M61 0h512v287h-245v430h164v266h-164v410h245v245h-512v-1638zM219 1761h232l374 428h-250z" />
<glyph unicode="&#xca;" d="M39 1761h145l133 287l134 -287h145l-213 426v4h-131zM61 0h512v287h-245v430h164v266h-164v410h245v245h-512v-1638z" />
<glyph unicode="&#xcb;" d="M61 0h512v287h-245v430h164v266h-164v410h245v245h-512v-1638zM66 1761h213v348h-213v-348zM344 1761h213v348h-213v-348z" />
<glyph unicode="&#xcc;" horiz-adv-x="389" d="M-293 2189l373 -428h231l-352 428h-252zM61 0h267v1638h-267v-1638z" />
<glyph unicode="&#xcd;" horiz-adv-x="389" d="M61 0h267v1638h-267v-1638zM86 1761h231l373 428h-248z" />
<glyph unicode="&#xce;" horiz-adv-x="389" d="M-86 1761h141l133 287l134 -287h145l-213 426v4h-131zM61 0h267v1638h-267v-1638z" />
<glyph unicode="&#xcf;" horiz-adv-x="389" d="M-45 1761h209v348h-209v-348zM61 0h267v1638h-267v-1638zM229 1761h213v348h-213v-348z" />
<glyph unicode="&#xd0;" horiz-adv-x="2920" d="M23 -80h2875v1718h-2875v-1718zM125 291v676q0 63 53 104q47 35 115 35t106 -39l367 -362q63 -63 63 -154v-309q0 -43 39 -43q12 0 24.5 15t12.5 28l-4 1396h115l-2 -1400q0 -61 -44 -106.5t-106 -45.5q-66 0 -106.5 45t-40.5 113q0 147 -1 233t-3 113q-4 18 -178 190 l-195 191q-29 29 -55 28q-20 0 -35 -12q-16 -49 -17 -65v-635q0 -88 72 -88h166q27 12 51 43h109q-29 -147 -158 -148h-168q-180 0 -180 197zM1157 242q0 63 37 106t96 43h572v-108h-553q-41 0 -41 -37q0 -43 45 -43h512q125 0 125 92v156q0 92 -92 92h-512q-86 0 -137.5 51 t-51.5 137v182q0 92 54.5 150.5t146.5 58.5h504q156 0 182 -155h-102q-41 43 -89 43h-499q-84 0 -84 -88v-195q0 -76 84 -76h504q92 0 144 -47t52 -133v-192q0 -80 -48 -130.5t-128 -50.5h-578q-61 0 -102 41t-41 103zM2218 270v660q0 197 236 196q33 0 98 -6q35 -2 59.5 -3 t40.5 -1q82 0 82 43q0 39 -84 39q-16 0 -40.5 -1t-57.5 -3t-56.5 -3t-39.5 -1q-238 0 -238 180v268h117v-268q0 -72 75 -72h304q55 0 94 -43t39 -104q0 -59 -45 -102t-105 -43h-299q-72 0 -71 -93v-618q0 -61 38 -86v-115q-147 33 -147 176z" />
<glyph unicode="&#xd1;" horiz-adv-x="798" d="M61 0h226v840l143 -840h307v1638h-225v-778l-113 778h-338v-1638zM158 1780h143q2 55 29 55q8 0 73 -37q63 -37 99 -37q135 0 135 209v15h-143q0 -18 -5 -35q-8 -20 -26 -21l-80 43q-53 29 -84 29q-133 0 -141 -221z" />
<glyph unicode="&#xd2;" horiz-adv-x="696" d="M-129 2189l371 -428h231l-356 428h-246zM61 287q0 -141 73 -222t214 -81t214 81t73 222v1065q0 141 -73 225t-214 84t-214 -84t-73 -225v-1065zM307 358v895q0 119 41 119t41 -119v-895q0 -92 -41 -92t-41 92z" />
<glyph unicode="&#xd3;" horiz-adv-x="696" d="M61 287q0 -141 73 -222t214 -81t214 81t73 222v1065q0 141 -73 225t-214 84t-214 -84t-73 -225v-1065zM236 1761h231l375 428h-250zM307 358v895q0 119 41 119t41 -119v-895q0 -92 -41 -92t-41 92z" />
<glyph unicode="&#xd4;" horiz-adv-x="696" d="M61 287q0 -141 73 -222t214 -81t214 81t73 222v1065q0 141 -73 225t-214 84t-214 -84t-73 -225v-1065zM70 1761h145l133 287l133 -287h146l-213 426v4h-131zM307 358v895q0 119 41 119t41 -119v-895q0 -92 -41 -92t-41 92z" />
<glyph unicode="&#xd5;" horiz-adv-x="696" d="M61 287q0 -141 73 -222t214 -81t214 81t73 222v1065q0 141 -73 225t-214 84t-214 -84t-73 -225v-1065zM106 1780h144q2 55 29 55q8 0 73 -37q63 -37 99 -37q135 0 135 209v15h-144q0 -18 -4 -35q-8 -20 -26 -21l-80 43q-53 29 -84 29q-133 0 -142 -221zM307 358v895 q0 119 41 119t41 -119v-895q0 -92 -41 -92t-41 92z" />
<glyph unicode="&#xd6;" horiz-adv-x="696" d="M61 287q0 -141 73 -222t214 -81t214 81t73 222v1065q0 141 -73 225t-214 84t-214 -84t-73 -225v-1065zM100 1761h213v348h-213v-348zM307 358v895q0 119 41 119t41 -119v-895q0 -92 -41 -92t-41 92zM379 1761h213v348h-213v-348z" />
<glyph unicode="&#xd9;" horiz-adv-x="675" d="M-133 2189l375 -428h231l-356 428h-250zM61 287q0 -141 73 -222t214 -81q266 0 266 303v1351h-225v-1310q0 -72 -41 -72t-41 72v1310h-246v-1351z" />
<glyph unicode="&#xda;" horiz-adv-x="675" d="M61 287q0 -141 73 -222t214 -81q266 0 266 303v1351h-225v-1310q0 -72 -41 -72t-41 72v1310h-246v-1351zM240 1761h231l375 428h-250z" />
<glyph unicode="&#xdb;" horiz-adv-x="675" d="M61 287q0 -141 73 -222t214 -81q266 0 266 303v1351h-225v-1310q0 -72 -41 -72t-41 72v1310h-246v-1351zM66 1761h145l133 287l133 -287h146l-213 426v4h-131z" />
<glyph unicode="&#xdc;" horiz-adv-x="675" d="M59 1638l2 -1351q0 -141 73 -221t214 -80q266 0 266 301v1351h-225v-1310q0 -72 -41 -72t-41 72l-2 1310h-246zM94 1761h213v348h-213v-348zM373 1761h213v348h-213v-348z" />
<glyph unicode="&#xdd;" d="M0 1638l123 -505q2 -4 10 -36t25 -89q10 -35 16 -67t10 -60v-881h246v881q37 174 62 252l122 505h-204l-82 -286l-82 286h-246zM223 1761h232l370 428h-245z" />
<glyph unicode="&#xdf;" horiz-adv-x="1253" d="M51 453q0 -219 31 -308q55 -158 231 -157q135 0 203 98q57 82 57 227q0 147 -104 349l-174 329q-27 51 -27 105q0 72 41 71q55 0 56 -176v-51h192q0 227 -27 307q-51 162 -225 162q-123 0 -192 -88q-61 -80 -62 -207q0 -166 70 -297l192 -364q51 -94 52 -158 q0 -70 -56 -70q-57 0 -65 94v134h-193zM678 453q0 -219 31 -308q55 -158 231 -157q135 0 203 98q57 82 57 227q0 147 -104 349l-174 329q-27 51 -27 105q0 72 41 71q55 0 55 -176v-51h193q0 227 -27 307q-51 162 -225 162q-123 0 -193 -88q-61 -80 -61 -207q0 -166 70 -297 l192 -364q51 -94 51 -158q0 -70 -55 -70q-57 0 -66 94v134h-192z" />
<glyph unicode="&#xe0;" horiz-adv-x="522" d="M-123 1853l322 -366h196l-303 364zM0 0h188l17 244h94l18 -244h205l-123 1393h-278zM221 469l31 436l33 -436h-64z" />
<glyph unicode="&#xe1;" horiz-adv-x="522" d="M0 0h188l17 244h94l18 -244h205l-123 1393h-278zM166 1487h196l326 366l-221 -2zM221 469l31 436l33 -436h-64z" />
<glyph unicode="&#xe2;" horiz-adv-x="522" d="M0 0h188l17 244h94l18 -244h205l-123 1393h-278zM18 1487l123 2l113 244l115 -244l123 -2l-183 364l2 2h-112zM221 469l31 436l33 -436h-64z" />
<glyph unicode="&#xe3;" horiz-adv-x="522" d="M0 0h188l17 244h94l18 -244h205l-123 1393h-278zM37 1499h121q4 47 24 47q10 0 62 -33q51 -31 86 -30q114 0 114 178v12h-122q0 -18 -5.5 -32.5t-21.5 -14.5q-123 59 -139 60q-111 0 -119 -187zM221 469l31 436l33 -436h-64z" />
<glyph unicode="&#xe4;" horiz-adv-x="522" d="M0 0h188l17 244h94l18 -244h205l-123 1393h-278zM51 1505h180v295h-180v-295zM221 469l31 436l33 -436h-64zM287 1505h180v295h-180v-295z" />
<glyph unicode="&#xe5;" horiz-adv-x="522" d="M0 0h188l17 244h94l18 -244h205l-123 1393h-278zM96 1655q0 -66 45 -111t111 -45t112 45t46 111t-46.5 111.5t-111.5 45.5q-66 0 -111 -46t-45 -111zM170 1655q0 35 23.5 59.5t58.5 24.5t59.5 -24.5t24.5 -59.5t-24.5 -59.5t-59.5 -24.5t-58.5 24.5t-23.5 59.5zM221 469 l31 436l33 -436h-64z" />
<glyph unicode="&#xe6;" horiz-adv-x="786" d="M0 0h188l17 244h94l16 -217v-27h437v244h-209v364h139v228h-139v348h209v209h-631zM221 469l31 436l33 -436h-64z" />
<glyph unicode="&#xe7;" horiz-adv-x="591" d="M47 -299h180l260 367q52 70 52 176v329h-209v-268q0 -80 -35 -80t-35 80v768q0 94 35 94t35 -94v-237h209v313q0 262 -244 262q-119 0 -181.5 -69.5t-62.5 -192.5v-905q0 -227 199 -252z" />
<glyph unicode="&#xe8;" horiz-adv-x="522" d="M-123 1853l322 -366h196l-303 364zM51 0h436v244h-208v364h139v228h-139v348h208v209h-436v-1393z" />
<glyph unicode="&#xe9;" horiz-adv-x="522" d="M51 0h436v244h-208v364h139v228h-139v348h208v209h-436v-1393zM166 1487h196l326 366l-221 -2z" />
<glyph unicode="&#xea;" horiz-adv-x="522" d="M25 1487l122 2l115 244l113 -244l123 -2l-181 364v2h-112l2 -2zM51 0h436v244h-208v364h139v228h-139v348h208v209h-436v-1393z" />
<glyph unicode="&#xeb;" horiz-adv-x="522" d="M51 0h436v244h-208v364h139v228h-139v348h208v209h-436v-1393zM61 1505h181v295h-181v-295zM297 1505h180v295h-180v-295z" />
<glyph unicode="&#xec;" horiz-adv-x="329" d="M-266 1853l321 -366h197l-299 364zM51 0h228v1393h-228v-1393z" />
<glyph unicode="&#xed;" horiz-adv-x="329" d="M51 0h228v1393h-228v-1393zM80 1487h196l326 366l-219 -2z" />
<glyph unicode="&#xee;" horiz-adv-x="329" d="M-68 1487l119 2l115 244l113 -244l122 -2l-180 364v2h-112l2 -2zM51 0h228v1393h-228v-1393z" />
<glyph unicode="&#xef;" horiz-adv-x="329" d="M-41 1505h176v295h-176v-295zM51 0h228v1393h-228v-1393zM190 1505h181v295h-181v-295z" />
<glyph unicode="&#xf1;" horiz-adv-x="677" d="M51 0h193v713l121 -713h262v1393h-193v-662l-94 662h-289v-1393zM119 1499h121q4 47 24 47q10 0 62 -33q51 -31 86 -30q114 0 114 178v12h-123q0 -18 -5 -32.5t-21 -14.5q-123 59 -139 60q-111 0 -119 -187z" />
<glyph unicode="&#xf2;" horiz-adv-x="591" d="M-123 1853l322 -366h196l-303 364zM51 244q0 -119 62.5 -187.5t181.5 -68.5q244 0 244 256v905q0 262 -244 262q-119 0 -181.5 -69.5t-62.5 -192.5v-905zM260 305v760q0 102 35 102t35 -102v-760q0 -80 -35 -80t-35 80z" />
<glyph unicode="&#xf3;" horiz-adv-x="591" d="M51 244q0 -119 62.5 -187.5t181.5 -68.5q244 0 244 256v905q0 262 -244 262q-119 0 -181.5 -69.5t-62.5 -192.5v-905zM197 1487h196l326 366l-219 -2zM260 305v760q0 102 35 102t35 -102v-760q0 -80 -35 -80t-35 80z" />
<glyph unicode="&#xf4;" horiz-adv-x="591" d="M51 244q0 -119 62.5 -187.5t181.5 -68.5q244 0 244 256v905q0 262 -244 262q-119 0 -181.5 -69.5t-62.5 -192.5v-905zM53 1487l123 2l113 244l114 -244l123 -2l-182 364l2 2h-113zM260 305v760q0 102 35 102t35 -102v-760q0 -80 -35 -80t-35 80z" />
<glyph unicode="&#xf5;" horiz-adv-x="591" d="M51 244q0 -119 62.5 -187.5t181.5 -68.5q244 0 244 256v905q0 262 -244 262q-119 0 -181.5 -69.5t-62.5 -192.5v-905zM88 1499h123q4 47 25 47q8 0 59 -33q51 -31 86 -30q115 0 115 178v12h-121q0 -18 -5 -32.5t-22 -14.5l-67 37q-49 23 -72 23q-113 0 -121 -187z M260 305v760q0 102 35 102t35 -102v-760q0 -80 -35 -80t-35 80z" />
<glyph unicode="&#xf6;" horiz-adv-x="591" d="M51 244q0 -119 62.5 -187.5t181.5 -68.5q244 0 244 256v905q0 262 -244 262q-119 0 -181.5 -69.5t-62.5 -192.5v-905zM86 1505h180v295h-180v-295zM260 305v760q0 102 35 102t35 -102v-760q0 -80 -35 -80t-35 80zM322 1505h180v295h-180v-295z" />
<glyph unicode="&#xf9;" horiz-adv-x="573" d="M-123 1853l322 -366h196l-303 364zM51 244q0 -119 62.5 -187.5t181.5 -68.5q227 0 227 256v1149h-192v-1114q0 -61 -35 -62q-35 0 -35 62v1114h-209v-1149z" />
<glyph unicode="&#xfa;" horiz-adv-x="573" d="M51 244q0 -119 62.5 -187.5t181.5 -68.5q227 0 227 256v1149h-192v-1114q0 -61 -35 -62q-35 0 -35 62v1114h-209v-1149zM193 1487h196l326 366l-219 -2z" />
<glyph unicode="&#xfb;" horiz-adv-x="573" d="M51 244q0 -119 62.5 -187.5t181.5 -68.5q227 0 227 256v1149h-192v-1114q0 -61 -35 -62q-35 0 -35 62v1114h-209v-1149zM53 1487l123 2l113 244l114 -244l123 -2l-182 364l2 2h-113z" />
<glyph unicode="&#xfc;" horiz-adv-x="573" d="M51 244q0 -119 62.5 -187.5t181.5 -68.5q227 0 227 256v1149h-192v-1114q0 -61 -35 -62q-35 0 -35 62v1114h-209v-1149zM82 1505h180v295h-180v-295zM317 1505h181v295h-181v-295z" />
<glyph unicode="&#xfd;" horiz-adv-x="522" d="M0 1393l104 -430q2 -4 8.5 -31t20.5 -76q8 -29 13.5 -55.5t9.5 -52.5v-748h209v748q16 76 29.5 129t23.5 86l104 430h-174l-69 -244l-70 244h-209zM182 1487h197l326 366l-220 -2z" />
<glyph unicode="&#xff;" horiz-adv-x="522" d="M0 1393l104 -430q2 -4 8.5 -31t20.5 -76q8 -29 13.5 -55.5t9.5 -52.5v-748h209v748q16 76 29.5 129t23.5 86l104 430h-174l-69 -244l-70 244h-209zM61 1505h181v295h-181v-295zM297 1505h180v295h-180v-295z" />
<glyph unicode="&#x152;" horiz-adv-x="946" d="M61 287q0 -141 73 -222t214 -81q61 0 105 14q6 2 8 2h4h432v287h-246v430h164v266h-164v410h246v245h-424q-61 23 -125 23q-141 0 -214 -84t-73 -225v-1065zM307 358v895q0 119 41 119q37 0 37 -45v-1026q0 -35 -37 -35q-41 0 -41 92z" />
<glyph unicode="&#x153;" horiz-adv-x="796" d="M51 244q0 -256 244 -256q37 0 67 6l31 6h373v244h-209v364h139v228h-139v348h209v209h-367q-47 18 -104 18q-119 0 -181.5 -69.5t-62.5 -192.5v-905zM260 305v760q0 102 35 102t35 -102v-760q0 -80 -35 -80t-35 80z" />
<glyph unicode="&#x178;" d="M0 1638l123 -505q2 -4 10 -36t25 -89q10 -35 16 -67t10 -60v-881h246v881q37 174 62 252l122 505h-204l-82 -286l-82 286h-246zM61 1761h213v348h-213v-348zM340 1761h213v348h-213v-348z" />
<glyph unicode="&#x2c6;" d="M25 1761h145l133 287l133 -287h146l-213 426v4h-131z" />
<glyph unicode="&#x2dc;" d="M45 1780h143q2 55 29 55q8 0 74 -37q63 -37 98 -37q135 0 135 209v15h-143q0 -18 -4 -35q-8 -20 -27 -21l-80 43q-53 29 -84 29q-133 0 -141 -221z" />
<glyph unicode="&#x2000;" horiz-adv-x="1095" />
<glyph unicode="&#x2001;" horiz-adv-x="2191" />
<glyph unicode="&#x2002;" horiz-adv-x="1095" />
<glyph unicode="&#x2003;" horiz-adv-x="2191" />
<glyph unicode="&#x2004;" horiz-adv-x="730" />
<glyph unicode="&#x2005;" horiz-adv-x="547" />
<glyph unicode="&#x2006;" horiz-adv-x="365" />
<glyph unicode="&#x2007;" horiz-adv-x="365" />
<glyph unicode="&#x2008;" horiz-adv-x="273" />
<glyph unicode="&#x2009;" horiz-adv-x="438" />
<glyph unicode="&#x200a;" horiz-adv-x="121" />
<glyph unicode="&#x2010;" horiz-adv-x="327" d="M0 748h328v204h-328v-204z" />
<glyph unicode="&#x2011;" horiz-adv-x="327" d="M0 748h328v204h-328v-204z" />
<glyph unicode="&#x2012;" horiz-adv-x="327" d="M0 748h328v204h-328v-204z" />
<glyph unicode="&#x2013;" horiz-adv-x="1023" d="M0 748h1024v204h-1024v-204z" />
<glyph unicode="&#x2014;" horiz-adv-x="2047" d="M0 748h2048v204h-2048v-204z" />
<glyph unicode="&#x2018;" horiz-adv-x="389" d="M61 983h267v348h-103l103 307h-123l-144 -307v-348z" />
<glyph unicode="&#x2019;" horiz-adv-x="389" d="M61 983h123l144 307v348h-267v-348h103z" />
<glyph unicode="&#x201a;" horiz-adv-x="389" d="M61 0h103l-103 -303h123l144 303v348h-267v-348z" />
<glyph unicode="&#x201c;" horiz-adv-x="716" d="M61 983h267v348h-103l103 307h-123l-144 -307v-348zM389 983h266v348h-102l102 307h-123l-143 -307v-348z" />
<glyph unicode="&#x201d;" horiz-adv-x="716" d="M61 983h123l144 307v348h-267v-348h103zM389 983h123l143 307v348h-266v-348h103z" />
<glyph unicode="&#x201e;" horiz-adv-x="716" d="M61 0h103l-103 -303h123l144 303v348h-267v-348zM389 0h103l-103 -303h123l143 303v348h-266v-348z" />
<glyph unicode="&#x2022;" horiz-adv-x="389" d="M41 696h307v389h-307v-389z" />
<glyph unicode="&#x2026;" horiz-adv-x="1167" d="M61 0h267v348h-267v-348zM451 0h266v348h-266v-348zM840 0h266v348h-266v-348z" />
<glyph unicode="&#x202f;" horiz-adv-x="438" />
<glyph unicode="&#x205f;" horiz-adv-x="547" />
<glyph unicode="&#x2122;" horiz-adv-x="833" d="M12 1491h72v-696h133v696h72v123h-277v-123zM319 791h123v512l72 -512h92l72 512v-512h123v819h-209l-29 -277l-28 277h-216v-819z" />
<glyph unicode="&#x25fc;" horiz-adv-x="1392" d="M0 0v1393h1393v-1393h-1393z" />
</font>
</defs>
</svg>
